<?xml version="1.0" encoding="UTF-8" standalone="no"?>
<!-- Created with Inkscape (http://www.inkscape.org/) -->

<svg
   xmlns:dc="http://purl.org/dc/elements/1.1/"
   xmlns:cc="http://creativecommons.org/ns#"
   xmlns:rdf="http://www.w3.org/1999/02/22-rdf-syntax-ns#"
   xmlns:svg="http://www.w3.org/2000/svg"
   xmlns="http://www.w3.org/2000/svg"
   xmlns:sodipodi="http://sodipodi.sourceforge.net/DTD/sodipodi-0.dtd"
   xmlns:inkscape="http://www.inkscape.org/namespaces/inkscape"
   width="210"
   height="220"
   id="svg3044"
   version="1.1"
   inkscape:version="0.92.3 (2405546, 2018-03-11)"
   sodipodi:docname="logo-sfw.svg"
   inkscape:export-filename="/home/gex/Desktop/cockvector.png"
   inkscape:export-xdpi="90"
   inkscape:export-ydpi="90">
  <defs
     id="defs3046" />
  <sodipodi:namedview
     id="base"
     pagecolor="#ffffff"
     bordercolor="#666666"
     borderopacity="1.0"
     inkscape:pageopacity="0.0"
     inkscape:pageshadow="2"
     inkscape:zoom="2.0000001"
     inkscape:cx="-61.386243"
     inkscape:cy="70.196609"
     inkscape:document-units="px"
     inkscape:current-layer="layer2"
     showgrid="false"
     showguides="true"
     inkscape:guide-bbox="true"
     guidetolerance="10000"
     inkscape:window-width="1851"
     inkscape:window-height="1011"
     inkscape:window-x="69"
     inkscape:window-y="32"
     inkscape:window-maximized="1"
     showborder="true"
     borderlayer="false"
     inkscape:showpageshadow="true">
    <sodipodi:guide
       position="697.09003,0"
       orientation="-1052.3622,0"
       id="guide4001"
       inkscape:locked="false" />
    <sodipodi:guide
       position="697.09003,1052.3622"
       orientation="0,-697.09003"
       id="guide4003"
       inkscape:locked="false" />
  </sodipodi:namedview>
  <metadata
     id="metadata3049">
    <rdf:RDF>
      <cc:Work
         rdf:about="">
        <dc:format>image/svg+xml</dc:format>
        <dc:type
           rdf:resource="http://purl.org/dc/dcmitype/StillImage" />
        <dc:title />
      </cc:Work>
    </rdf:RDF>
  </metadata>
  <g
     inkscape:groupmode="layer"
     id="layer2"
     inkscape:label="Layer"
     style="display:inline"
     transform="translate(0,-832.36149)">
    <path
       style="fill:none;stroke:#bebebe;stroke-width:5.50901079;stroke-linecap:butt;stroke-linejoin:miter;stroke-miterlimit:4;stroke-dasharray:none;stroke-opacity:1;stroke-dashoffset:0"
       d="m 36.516578,1051.5404 c 0,0 0.50508,-8.8389 8.33376,-32.0724"
       id="path3060"
       inkscape:connector-curvature="0" />
    <path
       style="fill:none;stroke:#bebebe;stroke-width:5.50901079;stroke-linecap:butt;stroke-linejoin:miter;stroke-miterlimit:4;stroke-dasharray:none;stroke-opacity:1;stroke-dashoffset:0"
       d="m 52.426478,1023.0036 c 0,0 -32.57742,-12.6269 -37.88072,-35.35536 -5.3033005,-22.72843 -3.53553,-30.30458 -3.53553,-30.30458 l -7.5761505,-0.50508 c 0,0 -4.79822,22.98098 0.50508,33.84011 5.3033,10.85911 21.4657405,21.97081 21.4657405,21.97081 l 2.77792,-4.0406"
       id="path3068"
       inkscape:connector-curvature="0" />
    <path
       style="fill:none;stroke:#bebebe;stroke-width:4.28478527;stroke-linecap:butt;stroke-linejoin:miter;stroke-miterlimit:4;stroke-dasharray:none;stroke-opacity:1;stroke-dashoffset:0"
       d="m 3.7411175,956.72894 5.875,-23.375 c 18.7500005,-5.125 18.0000005,-5.5 39.7500005,1.5 21.75,7 28.375,10.875 57.625002,-9.12499 29.25,-20 62.125,-12.5 72.75,-0.625 10.625,11.87499 24,25.87499 24,25.87499 l 0,0 0,0"
       id="path3074"
       inkscape:connector-curvature="0" />
    <path
       style="fill:none;stroke:#bebebe;stroke-width:5.50901079;stroke-linecap:butt;stroke-linejoin:miter;stroke-miterlimit:4;stroke-dasharray:none;stroke-opacity:1;stroke-dashoffset:0"
       d="m 52.241118,1022.7289 c 0,0 -12,-21.375 -11.125,-47.74996 0.875,-26.375 5.25,-41.125 5.25,-41.125"
       id="path3076"
       inkscape:connector-curvature="0" />
    <path
       style="fill:none;stroke:#bebebe;stroke-width:5.50901079;stroke-linecap:butt;stroke-linejoin:miter;stroke-miterlimit:4;stroke-dasharray:none;stroke-opacity:1;stroke-dashoffset:0"
       d="m 55.116118,936.60394 -11,8.625"
       id="path3078"
       inkscape:connector-curvature="0" />
    <path
       style="fill:none;stroke:#bebebe;stroke-width:5.50901079;stroke-linecap:butt;stroke-linejoin:miter;stroke-miterlimit:4;stroke-dasharray:none;stroke-opacity:1;stroke-dashoffset:0"
       d="m 121.86612,917.97895 -0.25,20.62499 c 0,0 -7.625,-1.625 -10.875,-4.875 -3.25,-3.25 -5.5,-6.74999 -5.5,-6.74999"
       id="path3080"
       inkscape:connector-curvature="0" />
    <path
       style="fill:none;stroke:#bebebe;stroke-width:5.50901079;stroke-linecap:butt;stroke-linejoin:miter;stroke-miterlimit:4;stroke-dasharray:none;stroke-opacity:1;stroke-dashoffset:0"
       d="m 191.24112,901.60395 c 0,0 2.375,18.75 5,24.625 2.625,5.87499 5.875,15.37499 6.375,18.37499 0.5,3 2,9.875 2,9.875 0,0 5,-10.625 3.625,-22.25 -1.375,-11.62499 -5.5,-19.37499 -8.25,-22.62499 -2.75,-3.25 -8.75,-8 -8.75,-8 z"
       id="path3082"
       inkscape:connector-curvature="0" />
    <path
       style="fill:none;stroke:#bebebe;stroke-width:2.04037428;stroke-linecap:butt;stroke-linejoin:miter;stroke-opacity:1;stroke-miterlimit:4;stroke-dasharray:none;stroke-dashoffset:0"
       d="m 191.36612,902.22895 c 0,0 -1.75,-25.75 -3.125,-30.75 -1.375,-5 -3.25,-8.25 -7.625,-12 -4.375,-3.75 -19,-12.875 -28.25,-15.625 -9.25,-2.75 -23.375,-9.25 -43.25,-9.25 -19.875003,0 -41.250002,5.25 -58.875002,13.25 -17.625,8 -36.625,27.75 -38.875,37.125 -2.2500005,9.375 -5.2500005,18.375 -3.3750005,31.375 1.875,12.99999 1.75,16.99999 1.75,16.99999"
       id="path3084"
       inkscape:connector-curvature="0" />
    <path
       style="fill:#bebebe;fill-opacity:1;stroke:#bebebe;stroke-width:0.18034533;stroke-opacity:1;stroke-miterlimit:4;stroke-dasharray:none;stroke-dashoffset:0"
       d="m 23.821468,1010.9151 c -9.44987,-7.0657 -16.5775905,-14.5444 -19.3948305,-20.34982 -1.39602,-2.87674 -2.12638,-6.28675 -2.42721,-11.33239 -0.31484,-5.28061 0.26084,-12.96662 1.51631,-20.24435 l 0.27826,-1.61309 0.53787,0.006 c 0.29583,0.003 1.79077,0.0928 3.3221,0.19888 l 2.7842305,0.19287 -0.0271,0.22097 c -0.0149,0.12153 -0.0491,1.41098 -0.076,2.86544 -0.0814,4.39722 0.28753,8.47686 1.34755,14.90062 0.70228,4.25577 1.94813,10.27196 2.69065,12.99308 1.33061,4.87632 3.80023,9.36036 7.69153,13.96539 1.00051,1.184 4.03585,4.2975 5.10604,5.2375 l 0.55761,0.4898 -1.20783,1.7546 c -0.66431,0.9651 -1.21695,1.7647 -1.22809,1.777 -0.0111,0.012 -0.67314,-0.4659 -1.4711,-1.0625 l 0,0 z"
       id="path3102"
       inkscape:connector-curvature="0" />
    <path
       style="fill:none;stroke:#bebebe;stroke-width:6.52919769;stroke-linecap:butt;stroke-linejoin:miter;stroke-miterlimit:4;stroke-dasharray:none;stroke-opacity:1;stroke-dashoffset:0"
       d="m 90.635497,995.17388 c 0,0 -1.06066,5.83362 3.18198,5.83362 4.24264,0 4.06586,0 6.01041,-1.41421 1.944543,-1.41421 3.005203,-2.12132 3.005203,-2.12132 0,0 1.94455,3.53553 6.54074,3.71233 4.59619,0.1768 4.06586,0 6.01041,-1.59101 1.94454,-1.59099 1.94454,-1.76776 1.94454,-1.76776"
       id="path3136"
       inkscape:connector-curvature="0" />
    <path
       style="fill:none;stroke:#bebebe;stroke-width:2.04037428;stroke-linecap:butt;stroke-linejoin:miter;stroke-opacity:1;stroke-miterlimit:4;stroke-dasharray:none;stroke-dashoffset:0"
       d="m 69.991118,983.22894 c 0,0 -9.5,-4.25 -10.5,-19.5 -1,-15.25 7.5,-26 7.5,-26 0,0 -1.125,6.75 0.625,9.125 1.75,2.375 14.124999,2.375 17.749999,0.125 3.625,-2.25 12,-19.99999 12,-19.99999 0,0 3.875003,14.62499 4.000003,26.37499 0.125,11.75 1.375,16 -3.125003,22.875 -4.5,6.875 -4.5,6.875 -4.5,6.875 0,0 3.75,-6.875 2.625,-10 -1.125,-3.125 -3.125,-4.875 -4.75,-4.75 -1.625,0.125 -1.75,8.5 -5.625,10.625 -3.875,2.125 -4.75,2 -8.124999,1.5 -3.375,-0.5 -4.375,-1.625 -5.5,-4 -1.125,-2.375 -2,-5.625 -2,-5.625 0,0 -3.875,3.625 -3.75,5.875 0.125,2.25 3.375,6.5 3.375,6.5 z"
       id="path3906"
       inkscape:connector-curvature="0" />
    <path
       style="fill:#bebebe;fill-opacity:1;stroke:#bebebe;stroke-width:0.48458883;stroke-miterlimit:4;stroke-dasharray:none;stroke-opacity:1;stroke-dashoffset:0"
       d="m 67.202588,980.74657 c -3.9683,-3.59718 -6.47327,-9.13319 -7.16085,-15.82557 -0.19875,-1.9345 -0.17185,-6.0158 0.0522,-7.92058 0.63091,-5.36362 2.30147,-10.60107 4.85576,-15.22354 1.07929,-1.95318 1.29752,-2.04406 1.23302,-0.51348 -0.0512,1.21386 0.16683,3.51881 0.40802,4.31434 0.49489,1.63234 1.15005,2.25207 2.94688,2.78746 2.15275,0.64145 6.72723,0.87961 10,0.52064 3.539379,-0.38822 5.549959,-1.02911 6.764299,-2.15616 1.54531,-1.43424 4.33273,-5.76265 7.24696,-11.25334 l 0.67624,-1.27408 1.0625,-0.59001 c 0.58437,-0.32451 1.41981,-0.80586 1.85652,-1.06967 0.43672,-0.26381 0.83503,-0.47965 0.88514,-0.47965 0.18005,0 1.26023,5.68407 1.876623,9.875 0.67685,4.60207 0.87978,7.18455 1.07064,13.62499 0.27865,9.40285 0.24104,11.3997 -0.26071,13.84442 -0.47148,2.29716 -1.378883,4.33245 -3.178213,7.12868 -0.58438,0.90813 -1.09879,1.65132 -1.14313,1.65153 -0.0443,2.5e-4 0.0507,-0.51557 0.21111,-1.14617 0.57085,-2.24351 0.527,-3.31125 -0.20278,-4.93779 -1.19247,-2.65779 -3.28894,-4.41885 -4.90055,-4.11651 -0.65303,0.12251 -0.99548,0.68528 -1.60548,2.63834 -2.00861,6.43112 -2.50852,7.2322 -5.38159,8.62373 -2.27307,1.10092 -3.30345,1.25275 -5.949289,0.87664 -3.35644,-0.47713 -4.45157,-1.14285 -5.5782,-3.39093 -0.58319,-1.16371 -1.53115,-3.6739 -2.01215,-5.32819 -0.1949,-0.67031 -0.39354,-1.21875 -0.44143,-1.21875 -0.14063,0 -2.01145,1.99584 -2.64456,2.82128 -0.75098,0.97912 -1.42291,2.21238 -1.60563,2.94696 -0.25451,1.02321 0.29998,2.71692 1.62069,4.95051 0.21343,0.36094 0.34472,0.65563 0.29176,0.65487 -0.053,-7.5e-4 -0.50016,-0.3675 -0.9938,-0.81497 l 0,0 z"
       id="path3908"
       inkscape:connector-curvature="0" />
    <path
       style="fill:none;stroke:#bebebe;stroke-width:2.04037428;stroke-linecap:butt;stroke-linejoin:miter;stroke-opacity:1;stroke-miterlimit:4;stroke-dasharray:none;stroke-dashoffset:0"
       d="m 121.74112,927.72894 c 0,0 9.75,-12.74999 17.375,-12.62499 7.625,0.125 12.25,0.875 16.375,9.125 4.125,8.24999 7,10.37499 7.75,25.99999 0.75,15.625 0.875,16.875 -2.25,22.75 -3.125,5.875 -5.75,8.75 -5.75,8.75 0,0 0.875,-5 0.75,-7.5 -0.125,-2.5 -2.25,-5.5 -2.25,-5.5 0,0 -1.5,4.375 -4.75,7.5 -3.25,3.125 -4.125,3.625 -6.375,3.625 -2.25,0 -5.75,-2.25 -6.875,-5 -1.125,-2.75 -2.125,-5.875 -2.125,-5.875 0,0 -2.25,3.75 -2.25,6.5 0,2.75 3.75,7.125 3.75,7.125 0,0 -4.875,-0.875 -7.5,-7.5 -2.625,-6.625 -1.875,-14.875 -2,-19.875 -0.125,-5 1.75,-12 2.75,-14.5 1,-2.5 2.25,-5.125 2.25,-5.125 0,0 -1.875,7.75 0.625,9.75 2.5,2 15,-1.5 16.75,-2.25 1.75,-0.75 6,-12.625 5.125,-16.24999 -0.875,-3.625 -11.375,-9 -16.625,-6.75 -5.25,2.25 -6.75,3 -9.625,6 -2.875,2.99999 -5.25,7.62499 -5.25,7.62499"
       id="path3910"
       inkscape:connector-curvature="0" />
    <path
       style="fill:#bebebe;fill-opacity:1;stroke:#bebebe;stroke-width:0.48458883;stroke-miterlimit:4;stroke-dasharray:none;stroke-opacity:1;stroke-dashoffset:0"
       d="m 132.60032,980.96712 c -1.64058,-1.10627 -2.91863,-2.61535 -3.94456,-4.65759 -1.44862,-2.88368 -2.21823,-6.39019 -2.49658,-11.375 -0.16709,-2.99228 -0.16578,-10.52623 0.002,-12.375 0.34797,-3.8307 1.47479,-8.77162 2.71533,-11.90625 0.31969,-0.80781 0.61152,-1.46885 0.6485,-1.46898 0.037,-1.2e-4 0.0501,0.69196 0.0292,1.53795 -0.0593,2.39841 0.38284,4.02574 1.31653,4.84554 1.45615,1.27851 5.90381,1.01432 12.909,-0.76681 3.18714,-0.81036 4.36712,-1.23461 4.89189,-1.75882 0.89876,-0.89781 2.06456,-3.37221 3.23153,-6.85894 1.62693,-4.86098 2.12362,-8.44401 1.38759,-10.00984 -1.26621,-2.69376 -6.34546,-5.73559 -11.26101,-6.74393 -1.79014,-0.36722 -4.01323,-0.29728 -5.3125,0.16714 -2.42712,0.86757 -5.97341,2.66149 -7.44573,3.76649 -2.06348,1.54866 -4.61575,4.47797 -6.33194,7.26733 l -0.72233,1.17401 -0.0345,-1.94587 -0.0345,-1.94586 0.96008,-1.1815 c 0.52804,-0.64983 1.81562,-2.06523 2.86129,-3.14533 2.87141,-2.96597 5.62733,-5.21579 7.86648,-6.42189 2.88327,-1.55304 4.42861,-1.8139 8.70697,-1.46977 4.17442,0.33577 6.49822,1.21332 8.69217,3.28247 1.70309,1.60622 2.42465,2.66866 4.51319,6.64537 0.68603,1.30625 1.73168,3.28932 2.32367,4.40684 2.59645,4.9014 3.69773,8.65007 4.32392,14.71815 0.37632,3.64665 0.79177,12.56494 0.79195,17 1.2e-4,3.73412 -0.15421,5.17756 -0.74471,6.96423 -0.37875,1.14599 -1.77781,4.05283 -2.84486,5.91077 -0.87614,1.52555 -3.21357,5.06965 -3.50077,5.308 -0.18685,0.15508 -0.20126,0.14151 -0.13802,-0.12992 0.17216,-0.73887 0.44294,-3.66337 0.44397,-4.79509 0.001,-1.48857 -0.22809,-2.50912 -0.88051,-3.91632 -0.52344,-1.12898 -1.70877,-3.15417 -1.84613,-3.15417 -0.0473,0 -0.2206,0.35156 -0.3851,0.78125 -0.74793,1.95356 -2.08922,4.28486 -3.33989,5.80505 -1.01601,1.23497 -3.56316,3.5943 -4.48049,4.1501 -2.34717,1.42212 -5.51419,0.65128 -7.9287,-1.92984 -1.1013,-1.1773 -1.43806,-1.8953 -3.00665,-6.41056 l -0.8395,-2.41651 -0.88983,1.7349 c -1.55277,3.0274 -2.11508,5.24787 -1.72305,6.804 0.26549,1.05388 1.11786,2.8031 1.98585,4.07536 0.38695,0.56719 0.63472,1.02951 0.5506,1.02739 -0.0841,-0.002 -0.54315,-0.26698 -1.02005,-0.58855 l 0,0 z"
       id="path3912"
       inkscape:connector-curvature="0" />
    <path
       style="opacity:1;fill:#bebebe;fill-opacity:1;stroke:#bebebe;stroke-width:1.15421009;stroke-miterlimit:4;stroke-dasharray:none;stroke-opacity:1;stroke-dashoffset:0"
       d="m 199.13852,944.5679 c -4.01166,-4.23641 -9.38868,-10.03275 -14.38577,-15.50762 -5.24422,-5.74562 -5.34643,-5.85166 -6.84299,-7.0994 -4.44044,-3.70218 -11.5413,-6.82113 -18.86614,-8.28667 -5.1971,-1.03983 -6.32729,-1.14148 -12.73598,-1.14551 -6.16804,-0.004 -6.94079,0.0549 -11.84404,0.90128 -7.79831,1.34607 -15.7398,4.23908 -22.89258,8.33953 -1.16673,0.66884 -4.44351,2.7412 -7.28173,4.60523 -2.83822,1.86403 -5.273192,3.43243 -5.411032,3.48532 -0.193,0.0741 -0.36581,-0.39792 -0.75161,-2.05279 l -0.50099,-2.14898 -1.72556,3.44768 c -1.18843,2.37448 -1.87939,3.55656 -2.21971,3.79746 -0.70612,0.49982 -5.5081,2.88054 -7.38844,3.66302 -3.24707,1.35123 -6.335,2.23729 -9.28078,2.66304 -2.03226,0.29372 -5.90242,0.30328 -7.95495,0.0196 l -1.5026,-0.20765 -0.0549,-0.66291 c -0.0302,-0.3646 -0.1231,-0.66291 -0.20651,-0.66291 -0.0834,0 -0.26971,-0.0453 -0.41402,-0.10068 -0.16938,-0.065 -0.37811,0.0971 -0.58898,0.45747 -0.31048,0.53059 -0.36698,0.55287 -1.14397,0.45111 -1.17067,-0.15332 -5.70488,-1.46374 -11.02668,-3.18679 -15.91111,-5.15158 -19.81482,-6.22527 -24.15106,-6.64261 -4.04671,-0.38947 -8.04225,0.24999 -16.68187,2.66985 -1.36255,0.38163 -2.61657,0.69408 -2.78672,0.69434 -0.25167,3.7e-4 -0.30936,-0.15757 -0.30936,-0.84691 0,-1.23646 -0.6025,-6.85692 -1.31391,-12.25686 -0.86906,-6.59654 -1.06075,-9.73016 -0.82152,-13.42994 0.33699,-5.21185 0.88723,-8.40919 2.75013,-15.98059 1.33231,-5.41495 1.57738,-6.15883 2.75513,-8.36307 2.14989,-4.02364 5.56898,-8.40035 10.50451,-13.44661 8.1874,-8.37109 17.40302,-15.16367 26.02153,-19.17979 15.67509,-7.30439 34.572,-12.12061 51.798632,-13.20182 4.85262,-0.30457 13.55594,-0.13393 17.53998,0.3439 6.09969,0.73156 11.73678,1.93032 18.34921,3.90206 5.21565,1.55524 17.59141,5.76375 19.77226,6.72377 8.83534,3.88937 19.84883,10.64953 24.18023,14.842 2.19374,2.12337 3.24637,3.51659 4.34599,5.75214 1.75522,3.56842 2.29964,6.12963 3.19528,15.03178 0.61334,6.09647 1.55685,17.27743 1.46768,17.39271 -0.0316,0.0409 -0.25576,-0.11189 -0.49806,-0.33952 -0.24231,-0.22763 -0.48704,-0.36738 -0.54386,-0.31057 -0.1151,0.11511 0.87176,7.23305 1.70648,12.3082 1.37746,8.37503 2.49225,12.79942 4.39156,17.42913 2.75135,6.70669 4.9516,13.21802 5.66725,16.77143 0.21218,1.0536 0.35194,1.9495 0.31056,1.99088 -0.0414,0.0414 -1.22494,-1.13884 -2.63012,-2.62273 z"
       id="path4092"
       inkscape:connector-curvature="0"
       sodipodi:nodetypes="cscscscssscscsscccscccssscsssssssssssscccccsccsc" />
    <path
       style="fill:none;stroke:#bebebe;stroke-width:5.50901079;stroke-linecap:butt;stroke-linejoin:miter;stroke-miterlimit:4;stroke-dasharray:none;stroke-opacity:1;stroke-dashoffset:0"
       d="m 189.984,936.30724 -4.33103,0.35355 c 0,0 10.08815,27.19315 5.83815,47.19315 -4.25,19.99996 -4.25,23.99996 -11.75,31.99996 -7.5,8 -13.75,8.5 -13.75,8.5"
       id="path3914"
       inkscape:connector-curvature="0" />
    <path
       style="fill:none;stroke:#bebebe;stroke-width:5.50901079;stroke-linecap:butt;stroke-linejoin:miter;stroke-miterlimit:4;stroke-dasharray:none;stroke-opacity:1;stroke-dashoffset:0"
       d="m 166.29593,1026.3308 -1.01647,-14.6725"
       id="path3916"
       inkscape:connector-curvature="0" />
    <path
       style="fill:none;stroke:#bebebe;stroke-width:5.50901079;stroke-linecap:butt;stroke-linejoin:miter;stroke-miterlimit:4;stroke-dasharray:none;stroke-opacity:1;stroke-dashoffset:0"
       d="m 169.83146,942.6712 c 0,0 2.91681,11.57887 2.82843,23.33452 -0.0884,11.75565 0.53033,19.53383 0.53033,19.53383 0,0 7.33623,4.33102 8.39689,6.09879 1.06066,1.76777 1.76777,3.09359 1.76777,3.09359 0,0 -10.48876,14.49697 -23.86376,21.24697 -13.375,6.75 -20.125,5.875 -20.125,5.875"
       id="path3918"
       inkscape:connector-curvature="0" />
    <path
       style="fill:none;stroke:#bebebe;stroke-width:2.04037428;stroke-linecap:butt;stroke-linejoin:miter;stroke-opacity:1;stroke-miterlimit:4;stroke-dasharray:none;stroke-dashoffset:0"
       d="m 150.49112,1019.8539 1.875,5.875 c 0,0 4.625,-3.375 7.25,-6.875 2.625,-3.5 3.25,-4.625 3.25,-4.625"
       id="path3920"
       inkscape:connector-curvature="0" />
    <path
       style="fill:#bebebe;fill-opacity:1;stroke:#bebebe;stroke-width:0.48458883;stroke-miterlimit:4;stroke-dasharray:none;stroke-opacity:1;stroke-dashoffset:0"
       d="m 152.3584,1024.3175 c -0.98527,-3.0806 -1.3295,-4.1982 -1.3011,-4.2242 0.0184,-0.017 0.62404,-0.2525 1.34591,-0.5237 2.18647,-0.8215 4.0682,-1.654 6.5625,-2.9035 1.30625,-0.6543 2.42265,-1.2109 2.48089,-1.2368 0.49614,-0.2204 -2.70169,3.906 -4.28382,5.5277 -1.39421,1.4292 -4.26875,3.9542 -4.5015,3.9542 -0.0621,0 -0.19843,-0.2672 -0.30288,-0.5937 z"
       id="path3922"
       inkscape:connector-curvature="0" />
    <path
       style="fill:none;stroke:#bebebe;stroke-width:5.10093498;stroke-linecap:butt;stroke-linejoin:miter;stroke-miterlimit:4;stroke-dasharray:none;stroke-opacity:1;stroke-dashoffset:0"
       d="m 117.54975,983.19725 4.33103,1.63519"
       id="path3924"
       inkscape:connector-curvature="0"
       sodipodi:nodetypes="cc" />
    <path
       style="fill:none;stroke:#bebebe;stroke-width:5.50901079;stroke-linecap:butt;stroke-linejoin:miter;stroke-miterlimit:4;stroke-dasharray:none;stroke-opacity:1;stroke-dashoffset:0"
       d="m 148.08793,1020.5413 c 0,0 3.18198,9.3692 4.86135,18.1196 1.67938,8.7505 2.74004,12.8163 2.74004,12.8163"
       id="path3926"
       inkscape:connector-curvature="0" />
    <path
       style="fill:none;stroke:#bebebe;stroke-width:5.50901079;stroke-linecap:butt;stroke-linejoin:miter;stroke-miterlimit:4;stroke-dasharray:none;stroke-opacity:1;stroke-dashoffset:0"
       d="m 142.78462,1021.6904 3.27037,29.5217"
       id="path3928"
       inkscape:connector-curvature="0" />
    <path
       style="fill:none;stroke:#bebebe;stroke-width:5.50901079;stroke-linecap:butt;stroke-linejoin:miter;stroke-miterlimit:4;stroke-dasharray:none;stroke-opacity:1;stroke-dashoffset:0"
       d="m 47.116118,1011.2289 c 0,0 4,2.75 13.875,5.875 9.875,3.125 9.875,3.125 9.875,3.125 l 0,0"
       id="path3930"
       inkscape:connector-curvature="0" />
    <path
       style="fill:none;stroke:#bebebe;stroke-width:5.50901079;stroke-linecap:butt;stroke-linejoin:miter;stroke-miterlimit:4;stroke-dasharray:none;stroke-opacity:1;stroke-dashoffset:0"
       d="m 62.616118,1051.2289 -0.625,-34"
       id="path3932"
       inkscape:connector-curvature="0" />
    <path
       style="fill:none;stroke:#bebebe;stroke-width:5.50901079;stroke-linecap:butt;stroke-linejoin:miter;stroke-miterlimit:4;stroke-dasharray:none;stroke-opacity:1;stroke-dashoffset:0"
       d="m 70.491118,1020.1039 c 0,0 6.875,-3 11.749999,-2 4.875,1 11.375,3.75 20.500003,3.5 9.125,-0.25 10.875,-0.75 16.625,-3.75 5.75,-3 16.625,-2.625 18.125,-0.875 1.5,1.75 4.125,5.625 0.875,11.875 -3.25,6.25 -9.875,18.125 -13.625,18.125 -3.75,0 -14.625,-5.875 -14.625,-5.875 l -14.250003,0 c 0,0 -10.25,8.375 -14.625,8.625 -4.374999,0.25 -7.624999,-6.875 -7.749999,-9.625 -0.125,-2.75 -0.75,-4.875 -3.375,-7.25 -2.625,-2.375 -3.875,-6.75 -3.25,-9.25 0.625,-2.5 3.625,-3.5 3.625,-3.5 z"
       id="path3934"
       inkscape:connector-curvature="0" />
    <path
       style="fill:none;stroke:#bebebe;stroke-width:5.30497265;stroke-linecap:butt;stroke-linejoin:miter;stroke-miterlimit:4;stroke-dasharray:none;stroke-opacity:1;stroke-dashoffset:0"
       d="m 97.241117,1021.3539 c 0,0 0.875,12 0.875,15.875 0,3.875 -0.125,3.875 -0.125,3.875 l 0,0 0,0"
       id="path3936"
       inkscape:connector-curvature="0" />
    <path
       style="fill:none;stroke:#bebebe;stroke-width:5.30497265;stroke-linecap:butt;stroke-linejoin:miter;stroke-miterlimit:4;stroke-dasharray:none;stroke-opacity:1;stroke-dashoffset:0"
       d="m 110.36612,1021.4789 c 0,0 0.375,9.375 0.25,13 -0.125,3.625 -0.375,6.75 -0.375,6.75"
       id="path3938"
       inkscape:connector-curvature="0" />
    <path
       style="fill:none;stroke:#bebebe;stroke-width:5.50901079;stroke-linecap:butt;stroke-linejoin:miter;stroke-miterlimit:4;stroke-dasharray:none;stroke-opacity:1;stroke-dashoffset:0"
       d="m 121.86612,1027.7289 -11,4.5"
       id="path3940"
       inkscape:connector-curvature="0" />
    <path
       style="fill:none;stroke:#bebebe;stroke-width:5.50901079;stroke-linecap:butt;stroke-linejoin:miter;stroke-miterlimit:4;stroke-dasharray:none;stroke-opacity:1;stroke-dashoffset:0"
       d="m 85.241117,1032.6039 12.625,-1.875"
       id="path3942"
       inkscape:connector-curvature="0" />
    <path
       style="fill:none;stroke:#bebebe;stroke-width:2.04037428;stroke-linecap:butt;stroke-linejoin:miter;stroke-opacity:1;stroke-miterlimit:4;stroke-dasharray:none;stroke-dashoffset:0"
       d="m 90.116117,1045.4789 c 0,0 1.625,6.5 4.25,6 2.625,-0.5 9.625003,-8.5 9.625003,-8.5 0,0 6,8.25 9.375,8.375 3.375,0.125 5.25,-6.25 5.25,-6.25"
       id="path3944"
       inkscape:connector-curvature="0" />
    <path
       style="fill:#bebebe;fill-opacity:1;stroke:#bebebe;stroke-width:0.90172642;stroke-miterlimit:4;stroke-dasharray:none;stroke-opacity:1;stroke-dashoffset:0"
       d="m 93.541837,1050.9846 c -0.5867,-0.2426 -1.56783,-1.6483 -2.1848,-3.1304 -0.77633,-1.8648 -0.8375,-2.3785 -0.3204,-2.6911 0.2259,-0.1365 1.46005,-1.0314 2.74255,-1.9887 l 2.33181,-1.7405 6.896013,0 6.89601,0 3.14654,1.5682 c 1.7306,0.8625 3.56418,1.7473 4.07463,1.9663 0.51044,0.219 0.92807,0.482 0.92807,0.5844 0,0.5288 -1.51803,3.214 -2.30163,4.0714 -1.75301,1.9181 -3.07464,1.7458 -6.01385,-0.7839 -1.14276,-0.9835 -3.74378,-3.8626 -5.10528,-5.651 l -0.60445,-0.7939 -2.22398,2.3789 c -3.248003,3.4743 -6.294213,6.045 -7.438883,6.2777 -0.24307,0.049 -0.61313,0.019 -0.82235,-0.067 z"
       id="path3948"
       inkscape:connector-curvature="0" />
    <path
       style="fill:#bebebe;fill-opacity:1;stroke:#bebebe;stroke-width:1.15421009;stroke-miterlimit:4;stroke-dasharray:none;stroke-opacity:1;stroke-dashoffset:0"
       d="m 95.679041,99.175487 c 0.0049,-0.07292 0.353707,-0.808458 0.775165,-1.634529 l 0.766286,-1.501946 0.196122,0.706451 c 0.341403,1.229772 0.275014,1.424291 -0.688446,2.017113 -0.936179,0.576037 -1.063403,0.626109 -1.049127,0.412911 z"
       id="path4094"
       inkscape:connector-curvature="0"
       transform="translate(0,832.36149)" />
    <path
       style="fill:#bebebe;fill-opacity:1;fill-rule:evenodd;stroke:#bebebe;stroke-width:2.04037428;stroke-linecap:butt;stroke-linejoin:miter;stroke-opacity:1;stroke-miterlimit:4;stroke-dasharray:none;stroke-dashoffset:0"
       d="m 52.5,948.73649 -45.2500001,-4.625 -0.375,1.625 45.2500001,4.875"
       id="path4216"
       inkscape:connector-curvature="0" />
    <path
       style="fill:#bebebe;fill-opacity:1;fill-rule:evenodd;stroke:#bebebe;stroke-width:2.04037428;stroke-linecap:butt;stroke-linejoin:miter;stroke-opacity:1;stroke-miterlimit:4;stroke-dasharray:none;stroke-dashoffset:0"
       d="m 176.33476,945.3232 10.51821,-0.97227 0.44194,2.03294 -10.42982,1.06065"
       id="path4220"
       inkscape:connector-curvature="0"
       sodipodi:nodetypes="cccc" />
  </g>
  <g
     inkscape:groupmode="layer"
     id="layer1"
     inkscape:label="Layer 1">
    <path
       transform="translate(0,-832.36149)"
       style="display:inline;fill:#bebebe;fill-opacity:1;fill-rule:evenodd;stroke:#bebebe;stroke-width:1px;stroke-linecap:butt;stroke-linejoin:miter;stroke-opacity:1"
       d="m 105.25,946.61149 -3.78033,-4.33395 c 0,0 -32.705583,-3.94692 -46.585786,4.28661 0,0 -0.223659,0.23449 -0.48288,0.47203 -2.714548,2.48751 -7.671233,17.51927 4.195189,22.8057 13.241162,5.89887 42.153807,4.26961 46.153807,-2.48039 4,-6.75 0.5,-20.75 0.5,-20.75 z"
       id="path3379"
       inkscape:connector-curvature="0"
       sodipodi:nodetypes="cccsssc" />
    <path
       style="display:inline;fill:#bebebe;fill-opacity:1;fill-rule:evenodd;stroke:#bebebe;stroke-width:1px;stroke-linecap:butt;stroke-linejoin:miter;stroke-opacity:1"
       d="m 106.03223,116.85171 0.80267,-0.96921 14.36842,0.01 1.09924,0.38861 1.98642,-5.07171 c 0,0 18.34366,-9.13224 48.58135,-2.33646 0,0 10.19191,7.44143 3.33986,21.41192 -6.85205,13.97048 -44.44815,12.49073 -49.60729,4.38833 -5.04563,-7.92413 -4.6131,-17.96309 -4.6131,-17.96309 l 0,0"
       id="path3377"
       inkscape:connector-curvature="0"
       sodipodi:nodetypes="ccccccsscc" />
  </g>
</svg>
